<svg width="595" height="512" viewBox="0 0 595 512" fill="none" xmlns="http://www.w3.org/2000/svg">
<path d="M231.662 120.962C136.463 120.962 77.3612 184.813 77.3612 265.722C77.3612 304.988 108.699 393.424 320.527 494.551C331.637 499.71 349.486 512 393.514 512H495.852C495.852 469.96 458.564 471.148 376.853 469.567C376.454 357.726 354.241 291.1 280.465 219.713L249.128 222.886C360.988 274.441 396.688 341.467 396.688 429.11L513.702 341.064L431.591 250.243C407 216.925 347.893 120.954 231.672 120.954L231.662 120.962ZM137.253 451.331C115.83 452.121 99.1772 464.418 99.1772 492.183C99.1772 492.183 180.889 492.973 238.802 475.525L180.093 444.193C166.208 448.953 151.931 450.932 137.255 451.33L137.253 451.331ZM462.121 234.791L500.596 219.719C476.797 119.378 426.421 44.4299 352.638 0C352.638 73.3723 389.926 153.084 462.114 234.778L462.121 234.791ZM519.237 0.0122285C487.11 62.277 487.11 134.852 519.237 192.757C550.574 134.856 550.574 62.2787 519.237 0.0122285ZM401.826 278.031L513.686 341.484C551.372 341.484 595 336.723 595 307.378C595 260.184 524.789 203.073 473.624 219.731L401.826 278.031ZM0 276.052C0 356.961 124.551 356.961 124.551 276.052C124.551 198.318 0 198.318 0 276.052Z" fill="#222222"/>
</svg>
