<svg width="44" height="24" viewBox="0 0 44 24" fill="none" xmlns="http://www.w3.org/2000/svg">
<path d="M14.2448 10.4265L4.46281 0.644516C3.60345 -0.214839 2.18802 -0.214839 1.32848 0.644516C0.469129 1.50387 0.469129 2.91931 1.32848 3.77884L9.51805 11.9937L1.30321 20.2085C0.443853 21.0679 0.443853 22.4833 1.30321 23.3429C1.73288 23.7725 2.31417 24 2.8703 24C3.45161 24 4.0077 23.7726 4.4374 23.3429L14.2194 13.5609C15.1041 12.7013 15.1041 11.2859 14.2448 10.4265L14.2448 10.4265Z" fill="#B42816"/>
<path d="M28.4723 10.4265L18.6903 0.644516C17.831 -0.214839 16.4156 -0.214839 15.556 0.644516C14.6967 1.50387 14.6967 2.91931 15.556 3.77884L23.7456 11.9937L15.5307 20.2085C14.6714 21.0679 14.6714 22.4833 15.5307 23.3429C15.9604 23.7725 16.5417 24 17.0978 24C17.6792 24 18.2352 23.7726 18.6649 23.3429L28.4469 13.5609C29.3317 12.7013 29.3317 11.2859 28.4723 10.4265L28.4723 10.4265Z" fill="#B42816"/>
<path d="M42.6999 10.4265L32.9179 0.644516C32.0585 -0.214839 30.6431 -0.214839 29.7836 0.644516C28.9242 1.50387 28.9242 2.91931 29.7836 3.77884L37.9731 11.9937L29.7583 20.2085C28.8989 21.0679 28.8989 22.4833 29.7583 23.3429C30.188 23.7725 30.7693 24 31.3254 24C31.9067 24 32.4628 23.7726 32.8925 23.3429L42.6745 13.5609C43.5592 12.7013 43.5592 11.2859 42.6998 10.4265L42.6999 10.4265Z" fill="#B42816"/>
</svg>
