<svg width="17" height="18" viewBox="0 0 17 18" fill="none" xmlns="http://www.w3.org/2000/svg">
<path d="M15.6858 6.7337C16.061 6.51625 16.3344 6.15926 16.4465 5.74033C16.5584 5.3217 16.4996 4.87539 16.283 4.4999C16.0658 4.12494 15.7086 3.85128 15.2896 3.73943C14.871 3.62728 14.4247 3.68606 14.0494 3.90265L10.7398 5.81312C10.6128 5.88646 10.4567 5.88617 10.33 5.81283C10.2033 5.73921 10.1254 5.60366 10.126 5.45727V1.63627C10.126 1.20224 9.95362 0.78616 9.64686 0.479121C9.33981 0.172359 8.92376 0 8.48971 0C8.05566 0 7.6396 0.172359 7.33256 0.479121C7.0258 0.786167 6.85344 1.20222 6.85344 1.63627V5.45727C6.85401 5.60366 6.77611 5.73921 6.64941 5.81283C6.5227 5.88617 6.36661 5.88646 6.23963 5.81312L2.92999 3.90265C2.55645 3.69263 2.11531 3.63727 1.70154 3.74913C1.28748 3.8607 0.934199 4.13037 0.717014 4.49989C0.500429 4.87542 0.441644 5.32173 0.553501 5.74032C0.665359 6.15923 0.93902 6.5162 1.31427 6.73368L4.6239 8.64415H4.62362C4.75203 8.71663 4.83107 8.85275 4.83107 8.99999C4.83107 9.14724 4.75203 9.28335 4.62362 9.35584L1.31398 11.2663H1.31427C0.93902 11.4838 0.665359 11.8407 0.553501 12.2597C0.441644 12.6783 0.500424 13.1246 0.717014 13.5001C0.934177 13.8751 1.29145 14.1487 1.71009 14.2606C2.129 14.3727 2.57503 14.3139 2.95052 14.0973L6.26015 12.1869C6.38686 12.1135 6.54323 12.1138 6.66993 12.1872C6.79664 12.2608 6.87425 12.3963 6.87368 12.5427V16.3637C6.87368 16.7978 7.04604 17.2138 7.35309 17.5209C7.65985 17.8276 8.07619 18 8.51024 18C8.94429 18 9.36035 17.8276 9.66739 17.5209C9.97415 17.2138 10.1465 16.7978 10.1465 16.3637V12.5427C10.1459 12.3963 10.2236 12.2608 10.3503 12.1872C10.477 12.1138 10.6333 12.1135 10.76 12.1869L14.0697 14.0973C14.4435 14.3074 14.8847 14.3627 15.2984 14.2509C15.7122 14.1393 16.0658 13.8696 16.2829 13.5001C16.4995 13.1246 16.5583 12.6783 16.4465 12.2597C16.3343 11.8408 16.0609 11.4838 15.6857 11.2663L12.3761 9.35585C12.2479 9.28337 12.1686 9.14725 12.1686 9.00001C12.1686 8.85276 12.2479 8.71664 12.3761 8.64416L15.6858 6.7337Z" fill="white"/>
</svg>
