<svg width="25" height="12" viewBox="0 0 25 12" fill="none" xmlns="http://www.w3.org/2000/svg">
<path fill-rule="evenodd" clip-rule="evenodd" d="M1.11452 11.9488H23.8856C24.036 11.924 24.176 11.8528 24.2852 11.7436C24.4227 11.6061 24.5 11.4191 24.5 11.2245V7.0361C24.5 6.84124 24.4227 6.65457 24.2852 6.51681C24.1474 6.37904 23.9607 6.30172 23.7659 6.30172H21.6772V0.795375C21.6803 0.577724 21.5866 0.370056 21.4214 0.228202C21.2562 0.0865972 21.0365 0.0253981 20.822 0.0612483L3.93584 2.83645C3.57684 2.89457 3.31438 3.20696 3.31925 3.57056V6.30171H1.23411C0.828512 6.30171 0.5 6.63049 0.5 7.03608V11.2245C0.5 11.4191 0.577331 11.606 0.714832 11.7435C0.824077 11.8528 0.964072 11.924 1.11452 11.9488ZM20.209 1.66173L4.79128 4.19471L4.79153 6.16224H20.2093L20.209 1.66173ZM1.96842 10.4903H23.0322V7.77016H1.96842V10.4903Z" fill="white"/>
</svg>
