<svg width="90" height="120" viewBox="0 0 90 120" fill="none" xmlns="http://www.w3.org/2000/svg">
<path d="M45 0C20.1897 0 0 26.9151 0 60C0 93.0849 20.1897 120 45 120C69.8103 120 90 93.0849 90 60C90 26.9151 69.8103 0 45 0ZM45 110C25.6997 110 10 87.5703 10 60C10 32.4297 25.6997 10 45 10C64.3003 10 80 32.4297 80 60C80 87.5703 64.3003 110 45 110ZM49.6251 62.0343C51.374 67.204 52.2781 72.6226 52.3004 78.08V78.5052C52.2758 79.2954 52.2356 80.08 52.1452 80.8802V80.8791C51.7769 87.9874 48.3618 94.59 42.7747 98.9997C41.6999 99.7765 40.3595 100.093 39.0504 99.8825C37.7412 99.6704 36.5694 98.9472 35.7927 97.8724C35.0159 96.7965 34.6989 95.4573 34.9099 94.147C35.1219 92.8379 35.8451 91.666 36.9199 90.8893C38.9634 89.3234 40.4656 87.1573 41.2156 84.695C41.229 84.3948 41.2703 84.0968 41.3406 83.8044C41.758 82.5912 42.0438 81.3356 42.19 80.0601V79.915C42.2759 78.9005 42.2949 77.8815 42.2503 76.8647C42.2503 76.3647 42.2101 75.8893 42.1654 75.425C41.4232 70.3524 40.1029 65.3815 38.2303 60.6101C37.5807 58.7307 36.9301 56.8501 36.3352 54.955C34.5874 49.7864 33.6845 44.3701 33.66 38.9147V38.4694C33.6845 37.6848 33.7247 36.9046 33.8095 36.1089L33.8106 36.11C34.1868 29.0029 37.6086 22.4023 43.2001 17.9994C44.6487 16.9537 46.5461 16.7595 48.1755 17.4916C49.8061 18.2238 50.9222 19.7695 51.1029 21.5462C51.2848 23.3241 50.5036 25.0631 49.0549 26.1099C47.0125 27.6758 45.5104 29.8419 44.7604 32.3042C44.747 32.6044 44.7045 32.9024 44.6354 33.1948C44.2168 34.4102 43.9311 35.6669 43.7849 36.9448V37.0843C43.699 38.1022 43.68 39.1245 43.7257 40.1446C43.7257 40.6446 43.7659 41.1145 43.8106 41.5743C44.5528 46.6469 45.8731 51.6177 47.7457 56.3892C48.3797 58.2597 49.0303 60.1392 49.6252 62.0343L49.6251 62.0343Z" fill="#B42816"/>
</svg>
