<svg width="19" height="24" viewBox="0 0 19 24" fill="none" xmlns="http://www.w3.org/2000/svg">
<path d="M9.16675 0C4.20469 0 0.166748 5.38303 0.166748 12C0.166748 18.617 4.20469 24 9.16675 24C14.1288 24 18.1667 18.617 18.1667 12C18.1667 5.38303 14.1288 0 9.16675 0ZM9.16675 22C5.30669 22 2.16675 17.5141 2.16675 12C2.16675 6.48594 5.30669 2 9.16675 2C13.0268 2 16.1667 6.48594 16.1667 12C16.1667 17.5141 13.0268 22 9.16675 22ZM10.0918 12.4069C10.4416 13.4408 10.6224 14.5245 10.6268 15.616V15.701C10.6219 15.8591 10.6139 16.016 10.5958 16.176V16.1758C10.5221 17.5975 9.83911 18.918 8.72168 19.7999C8.50673 19.9553 8.23865 20.0187 7.97682 19.9765C7.715 19.9341 7.48062 19.7894 7.32528 19.5745C7.16992 19.3593 7.10653 19.0915 7.14872 18.8294C7.19113 18.5676 7.33577 18.3332 7.55073 18.1779C7.95944 17.8647 8.25988 17.4315 8.40988 16.939C8.41255 16.879 8.42081 16.8194 8.43488 16.7609C8.51836 16.5182 8.5755 16.2671 8.60474 16.012V15.983C8.62193 15.7801 8.62573 15.5763 8.6168 15.3729C8.6168 15.2729 8.60876 15.1779 8.59983 15.085C8.45139 14.0705 8.18733 13.0763 7.81281 12.122C7.6829 11.7461 7.55276 11.37 7.43379 10.991C7.08423 9.95728 6.90366 8.87402 6.89874 7.78294V7.69387C6.90365 7.53695 6.91169 7.38093 6.92865 7.22178L6.92888 7.222C7.0041 5.80057 7.68848 4.48046 8.80676 3.59988C9.09649 3.39073 9.47596 3.3519 9.80185 3.49833C10.128 3.64475 10.3512 3.95391 10.3873 4.30924C10.4237 4.66482 10.2675 5.01261 9.97773 5.22198C9.56925 5.53515 9.26882 5.96838 9.11882 6.46084C9.11614 6.52089 9.10766 6.58048 9.09382 6.63896C9.01012 6.88204 8.95297 7.13338 8.92373 7.38896V7.41687C8.90654 7.62044 8.90274 7.8249 8.9119 8.02892C8.9119 8.12892 8.91993 8.2229 8.92886 8.31486C9.0773 9.32938 9.34136 10.3235 9.71589 11.2778C9.84268 11.6519 9.97281 12.0278 10.0918 12.4069L10.0918 12.4069Z" fill="white"/>
</svg>
