<svg width="24" height="18" viewBox="0 0 24 18" fill="none" xmlns="http://www.w3.org/2000/svg">
<path d="M3.923 17.9131C4.57654 17.6681 4.94405 16.9328 4.69907 16.2796L4.65804 16.2385C4.24951 15.0543 3.96377 13.9514 4.00451 12.9711C4.04525 11.9908 4.41304 10.9698 4.9438 9.74473C5.18881 9.13221 5.47483 8.51939 5.71987 7.82515C6.0059 7.09014 6.2509 6.19162 6.29164 5.29302C6.33238 4.3945 6.20988 3.4959 5.92413 2.67914C5.76089 2.2706 5.59736 1.86237 5.3931 1.49486C5.14809 1.08633 4.94382 0.800588 4.57633 0.392058C4.2903 0.0652862 3.84132 -0.0572178 3.39206 0.0245463C2.73852 0.18779 2.33024 0.841313 2.45277 1.49486L2.57527 1.98487C2.61601 2.14812 2.73852 2.43386 2.82028 2.67887C2.86102 2.92387 2.94278 3.2099 2.94278 3.45494C3.02455 3.98597 2.98352 4.47599 2.90204 4.92525C2.77954 5.41526 2.65704 5.82377 2.41203 6.35486L1.5542 8.23374C1.26817 8.88728 0.982428 9.62229 0.778131 10.4391C0.614887 11.2558 0.492098 12.1137 0.573863 13.0122C0.696367 14.8093 1.51315 16.3614 2.49343 17.5049C2.82021 17.9539 3.39196 18.1172 3.92305 17.9132L3.923 17.9131Z" fill="white"/>
<path d="M12.4584 17.9131C13.112 17.6681 13.4795 16.9328 13.2345 16.2796V16.2385C12.826 15.0543 12.5402 13.9514 12.622 12.9711C12.6627 11.9908 13.0305 10.9698 13.5613 9.74473C13.8063 9.13221 14.0923 8.51939 14.3374 7.82515C14.6234 7.09014 14.8684 6.19162 14.9091 5.29302C14.9499 4.3945 14.8274 3.4959 14.5416 2.67914C14.3784 2.2706 14.2148 1.86237 14.0106 1.49486C13.7656 1.12735 13.5613 0.800588 13.1938 0.392058C12.9078 0.0652862 12.4588 -0.0572178 12.0095 0.0245463C11.356 0.18779 10.9477 0.841313 11.0702 1.49486L11.1928 1.98487C11.1925 2.14812 11.315 2.43386 11.3557 2.67887C11.3965 2.92387 11.4782 3.2099 11.519 3.45494C11.6007 3.94495 11.5597 4.47599 11.4782 4.92525C11.3557 5.41526 11.2332 5.82377 10.9882 6.35486L10.1304 8.23374C9.84434 8.88728 9.5586 9.62229 9.3543 10.4391C9.19106 11.2558 9.06827 12.1137 9.15003 13.0122C9.27254 14.8093 10.0893 16.3614 11.0696 17.5049C11.3967 17.9539 11.9684 18.1172 12.4585 17.9132L12.4584 17.9131Z" fill="white"/>
<path d="M21.0353 17.9131C21.6888 17.6681 22.0564 16.9328 21.8114 16.2796L21.8111 16.2385C21.4026 15.0543 21.1168 13.9514 21.1576 12.9711C21.1983 11.9908 21.5661 10.9698 22.0968 9.74473C22.3419 9.13221 22.6279 8.51939 22.8729 7.82515C23.1589 7.09014 23.4039 6.19162 23.4447 5.29302C23.4854 4.3945 23.3629 3.4959 23.0772 2.67914C22.9547 2.2706 22.7504 1.86237 22.5461 1.49486C22.3011 1.08633 22.0969 0.800588 21.7294 0.392058C21.4433 0.0652862 20.9944 -0.0572178 20.5451 0.0245463C19.8916 0.18779 19.4833 0.841313 19.6058 1.49486L19.7283 1.98487C19.7691 2.14812 19.8916 2.43386 19.9326 2.67887C19.9733 2.92387 20.0551 3.2099 20.0551 3.45494C20.1369 3.98597 20.0958 4.47599 20.0143 4.92525C19.8918 5.41526 19.7693 5.82377 19.5243 6.35486L18.6665 8.23374C18.3805 8.88728 18.0947 9.62229 17.8904 10.4391C17.7272 11.2558 17.6044 12.1137 17.6862 13.0122C17.8087 14.8093 18.6255 16.3614 19.6057 17.5049C19.9733 17.9539 20.545 18.1172 21.0354 17.9132L21.0353 17.9131Z" fill="white"/>
</svg>
