<svg width="99" height="144" viewBox="0 0 99 144" fill="none" xmlns="http://www.w3.org/2000/svg">
<path d="M39.9968 30.1418C33.2311 30.1418 27.6877 35.6852 27.6877 42.4509V81.7348C25.7816 77.6157 22.3622 73.1628 18.0714 72.0701C12.2341 70.485 5.08317 75.1556 3.455 80.5811C2.6254 83.6055 3.16629 87.0462 4.80084 91.2557C12.7944 110.477 22.6371 128.929 34.6113 142.942C35.1833 143.6 36.0473 143.996 36.9187 144H78.461C79.1157 144 79.7661 143.77 80.2876 143.375C84.7169 140.095 88.2864 134.505 91.2496 127.846C94.2128 121.186 96.4817 113.46 97.6439 105.92C98.8073 98.3808 98.8019 91.3208 97.1631 85.0532C95.5811 79.0043 91.3139 73.9698 84.9507 73.225C83.4514 73.225 81.8672 73.3495 80.5267 73.6575C79.7378 71.7707 78.6313 70.1607 77.2577 69.1865C74.9566 67.5541 72.615 67.04 70.7183 67.0711C68.8971 67.1022 67.2367 67.7644 65.7665 68.8023C65.1043 67.7923 64.4239 66.7406 63.5546 66.1095C61.2739 64.4524 58.8462 63.9941 56.9199 63.9941C55.3261 63.9941 53.7828 64.4363 52.3038 65.0524V42.4541C52.1729 34.2179 45.6777 30.1291 39.9947 30.145L39.9968 30.1418ZM39.9968 36.2957C43.4592 36.2957 46.1507 38.9874 46.1507 42.4496V71.683C46.1303 73.0782 47.1949 74.4005 48.5547 74.7116C49.9145 75.0239 51.4267 74.293 52.0171 73.0287C52.6965 71.6153 55.2573 70.1439 56.922 70.1439C57.669 70.1439 59.0545 70.454 59.9506 71.1055C60.8478 71.7569 61.5368 72.5189 61.5368 74.7599C61.5368 76.1283 62.5628 77.4227 63.8926 77.7415C65.2234 78.0603 66.7313 77.3734 67.355 76.1553C68.6064 73.6525 69.2761 73.2479 70.8174 73.2221C71.2435 73.207 72.7374 73.499 73.7023 74.1837C74.6671 74.8684 75.3851 75.6562 75.3851 77.8381C75.3701 79.0369 76.1138 80.1971 77.2117 80.6747C78.3107 81.1533 79.707 80.9215 80.5774 80.0972C81.7441 79.522 82.8892 79.347 84.3756 79.376C88.0441 79.8429 89.9489 82.1416 91.2507 86.7319C92.5654 91.365 92.6137 97.9871 91.5394 104.954C90.465 111.922 88.3399 119.239 85.6259 125.341C83.0802 131.063 79.9614 135.531 77.2117 137.842H38.4087C27.6077 125.1 17.2928 105.534 10.571 89.0406C9.17146 85.4378 9.04483 83.3695 9.36895 82.2136C10.5087 79.2375 13.6996 77.5569 16.4375 77.983C19.7086 79.2151 20.52 81.3982 21.9184 83.8965L28.0253 96.1572C28.6478 97.3754 30.1568 98.0633 31.4877 97.7435C32.8186 97.4247 33.8414 96.1304 33.8435 94.7619V42.4494C33.8435 38.987 36.5352 36.2955 39.9974 36.2955L39.9968 36.2957Z" fill="#B42816"/>
<path d="M23.5456 43.2271C23.9301 45.3188 22.5583 47.2939 20.483 47.662C18.4082 48.0634 16.4162 46.6747 16.0481 44.5994C14.5586 36.6836 17.1024 28.5176 22.8097 22.8103C27.2609 18.3591 33.386 15.6145 40.1635 15.6309C46.9409 15.6145 53.0655 18.3586 57.5172 22.8103C61.9521 27.2452 64.6961 33.3698 64.6967 40.1641C64.6967 41.6029 64.5462 43.1597 64.2784 44.599C63.8939 46.6907 61.9184 48.0629 59.8435 47.6616C57.7682 47.2934 56.3965 45.3184 56.7809 43.2267C56.9653 42.2056 57.0318 41.202 57.0487 40.1477C57.0487 35.4953 55.1571 31.2616 52.1115 28.216C49.049 25.1535 44.8148 23.2625 40.1635 23.2625C35.511 23.2625 31.2774 25.1541 28.2154 28.216C24.3162 32.1153 22.5423 37.8051 23.5465 43.2272L23.5456 43.2271ZM11.815 56.0954C12.853 57.9363 12.2001 60.2624 10.3755 61.3167C8.55156 62.3378 6.20856 61.7018 5.17114 59.8604C3.51469 56.8982 2.20952 53.7189 1.32206 50.3553C0.468433 47.0581 0 43.6444 0 40.1635C0 29.0521 4.50138 19.0277 11.7645 11.7646C19.0443 4.4848 29.0672 -0.0161817 40.1635 4.44519e-05C51.2585 -0.0163171 61.2829 4.48507 68.5624 11.7646C75.8253 19.0275 80.3269 29.051 80.3269 40.1635C80.3269 43.6444 79.8753 47.0414 79.0049 50.3553C78.1174 53.7189 76.8128 56.8988 75.1558 59.8604C74.1178 61.7013 71.7758 62.3371 69.9345 61.2998C68.1269 60.2624 67.4741 57.9362 68.5119 56.0954C69.8673 53.7027 70.9053 51.1255 71.6411 48.4142C72.3103 45.8032 72.6616 43.0422 72.6791 40.1473C72.6791 31.1772 69.0308 23.0445 63.1568 17.1705C57.2663 11.2799 49.1334 7.63153 40.1637 7.63194C31.1941 7.63235 23.0609 11.2802 17.1707 17.1705C11.2969 23.0442 7.64866 31.177 7.64839 40.1473C7.66475 43.0425 8.01646 45.8039 8.68635 48.4142C9.40575 51.1418 10.46 53.7025 11.8155 56.0954H11.815Z" fill="#B42816"/>
</svg>
