<svg width="32" height="32" viewBox="0 0 32 32" fill="none" xmlns="http://www.w3.org/2000/svg">
<path d="M28.1254 15.9987C28.1254 15.3699 28.0835 14.7411 27.9997 14.1188C28.0223 14.2897 28.0449 14.4606 28.0674 14.6347C27.8998 13.3965 27.571 12.1872 27.0875 11.0393C27.152 11.1941 27.2165 11.3488 27.2809 11.5004C26.8103 10.3912 26.1979 9.34641 25.4629 8.39191C25.5629 8.52089 25.666 8.6531 25.7659 8.78208C25.0246 7.8244 24.1639 6.96342 23.2066 6.22178C23.3355 6.32174 23.4677 6.42493 23.5966 6.52489C22.6425 5.78967 21.5981 5.18023 20.4893 4.70622C20.644 4.77072 20.7987 4.83521 20.9502 4.8997C19.7995 4.41602 18.5907 4.08712 17.3562 3.91943C17.527 3.942 17.6978 3.96457 17.8719 3.98714C16.6245 3.82269 15.3609 3.82269 14.1134 3.98714C14.2843 3.96457 14.4551 3.942 14.6292 3.91943C13.3914 4.08711 12.1826 4.41602 11.0351 4.8997C11.1898 4.8352 11.3445 4.77071 11.496 4.70622C10.3872 5.17701 9.34286 5.78967 8.38871 6.52489C8.51765 6.42493 8.64981 6.32174 8.77874 6.22178C7.82142 6.96342 6.96075 7.8244 6.21939 8.78208C6.31931 8.6531 6.42246 8.52089 6.52238 8.39191C5.78744 9.34641 5.17823 10.3911 4.7044 11.5004C4.76887 11.3456 4.83333 11.1908 4.8978 11.0393C4.41429 12.1904 4.08552 13.3996 3.9179 14.6347C3.94046 14.4638 3.96302 14.2929 3.98558 14.1188C3.82119 15.3667 3.82119 16.6307 3.98558 17.8786C3.96302 17.7077 3.94046 17.5368 3.9179 17.3627C4.08551 18.6009 4.41429 19.8101 4.8978 20.9581C4.83332 20.8033 4.76886 20.6485 4.7044 20.497C5.17501 21.6062 5.78744 22.651 6.52238 23.6055C6.42246 23.4765 6.31931 23.3443 6.21939 23.2153C6.96075 24.173 7.82142 25.0339 8.77874 25.7756C8.64981 25.6756 8.51765 25.5724 8.38871 25.4725C9.34286 26.2077 10.3872 26.8171 11.496 27.2911C11.3413 27.2266 11.1866 27.1622 11.0351 27.0977C12.1858 27.5813 13.3946 27.9102 14.6292 28.0779C14.4583 28.0554 14.2875 28.0328 14.1134 28.0102C15.3609 28.1747 16.6245 28.1747 17.8719 28.0102C17.7011 28.0328 17.5302 28.0554 17.3562 28.0779C18.5939 27.9103 19.8027 27.5813 20.9502 27.0977C20.7955 27.1622 20.6408 27.2266 20.4893 27.2911C21.5981 26.8204 22.6425 26.2077 23.5966 25.4725C23.4677 25.5724 23.3355 25.6756 23.2066 25.7756C24.1639 25.0339 25.0246 24.173 25.7659 23.2153C25.666 23.3443 25.5629 23.4765 25.4629 23.6055C26.1979 22.651 26.8071 21.6062 27.2809 20.497C27.2165 20.6517 27.152 20.8065 27.0875 20.9581C27.571 19.8069 27.8998 18.5977 28.0674 17.3627C28.0449 17.5336 28.0223 17.7045 27.9997 17.8786C28.0835 17.2562 28.1222 16.6275 28.1254 15.9987C28.1254 15.5021 28.3414 14.9829 28.6928 14.6314C29.028 14.2961 29.5792 14.0446 30.0595 14.0639C30.5591 14.0865 31.0781 14.2509 31.4262 14.6314C31.7743 15.0087 31.9935 15.4763 31.9935 15.9987C31.9935 16.9113 31.8936 17.8173 31.7518 18.7202C31.639 19.4457 31.4649 20.1615 31.2393 20.8613C30.7493 22.3736 30.0466 23.8407 29.1215 25.137C28.6219 25.8368 28.0804 26.5139 27.4841 27.1331C26.8845 27.7554 26.2237 28.3004 25.5372 28.826C24.2736 29.7933 22.8586 30.5188 21.3661 31.0702C19.835 31.6345 18.1911 31.9247 16.5633 31.9892C15.7994 32.0182 15.0322 31.9892 14.2715 31.8957C13.3787 31.7861 12.4987 31.6442 11.6316 31.3991C10.7871 31.1605 9.97158 30.8348 9.1754 30.4672C8.52427 30.1706 7.89572 29.8223 7.29941 29.4289C5.99074 28.5679 4.77873 27.5264 3.7795 26.314C3.22508 25.6433 2.70611 24.9436 2.2581 24.1955C1.81005 23.4442 1.44901 22.6574 1.11706 21.848C0.49493 20.3389 0.169397 18.7299 0.0436749 17.1047C-0.0852593 15.457 0.0759088 13.7641 0.465937 12.1615C0.636772 11.4553 0.862411 10.762 1.14282 10.0913C1.48127 9.27877 1.84552 8.48554 2.30326 7.73098C3.11553 6.39281 4.13091 5.1481 5.30095 4.10658C6.48072 3.06181 7.79582 2.15572 9.23346 1.50435C10.0328 1.1432 10.8483 0.817547 11.6961 0.582108C12.5632 0.340263 13.4464 0.198385 14.3393 0.0951996C15.9993 -0.101498 17.6883 0.0178108 19.3258 0.349939C20.8891 0.665947 22.417 1.25927 23.8095 2.03316C24.567 2.45558 25.2632 2.95859 25.9498 3.48743C26.5106 3.92274 27.0425 4.39676 27.5324 4.91269C28.6219 6.05098 29.5696 7.36014 30.2723 8.77248C30.9879 10.2138 31.523 11.752 31.7679 13.3449C31.9033 14.2252 31.9968 15.1087 32 16.0019C32 16.4985 31.784 17.0209 31.4327 17.3691C31.0975 17.7045 30.5463 17.956 30.066 17.9367C29.5663 17.9141 29.0474 17.7496 28.6992 17.3691C28.3447 16.9887 28.1255 16.5243 28.1255 15.9987L28.1254 15.9987Z" fill="white"/>
<path d="M14.0625 23.2477V20.0876V15.0476V13.8867C14.0625 13.3901 14.2785 12.871 14.6298 12.5195C14.965 12.1841 15.5162 11.9326 15.9965 11.952C16.4962 11.9745 17.0151 12.139 17.3633 12.5195C17.7114 12.8968 17.9306 13.3643 17.9306 13.8867V17.0468V22.0868V23.2477C17.9306 23.7442 17.7146 24.2634 17.3633 24.6149C17.028 24.9503 16.4769 25.2018 15.9965 25.1824C15.4969 25.1599 14.978 24.9954 14.6298 24.6149C14.2817 24.2376 14.0625 23.7733 14.0625 23.2477Z" fill="white"/>
<path d="M15.9961 6.81526C16.4925 6.81526 17.0115 7.03131 17.3629 7.38278C17.6981 7.71814 17.9495 8.26953 17.9302 8.75002C17.9076 9.24983 17.7432 9.76897 17.3629 10.1173C16.9857 10.4655 16.5183 10.6848 15.9961 10.6848C15.4997 10.6848 14.9807 10.4687 14.6294 10.1173C14.2942 9.78191 14.0427 9.23051 14.0621 8.75002C14.0846 8.25021 14.249 7.73108 14.6294 7.38278C15.0065 7.03453 15.4707 6.81526 15.9961 6.81526Z" fill="white"/>
</svg>
