<svg width="85" height="122" viewBox="0 0 85 122" fill="none" xmlns="http://www.w3.org/2000/svg">
<path d="M54.5404 1C44.0297 1 35.4499 9.57877 35.4499 20.0905C35.4499 30.6022 44.0297 39.181 54.5404 39.181C65.0522 39.181 73.6319 30.6022 73.6319 20.0905C73.6319 9.57877 65.0522 1 54.5404 1ZM54.5404 6.45408C62.1042 6.45408 68.1768 12.5267 68.1768 20.0905C68.1768 27.6543 62.1042 33.7269 54.5404 33.7269C46.9773 33.7269 40.904 27.6543 40.904 20.0905C40.904 12.5267 46.9773 6.45408 54.5404 6.45408ZM54.5404 10.5452C49.3001 10.5452 44.9952 14.8505 44.9952 20.0905C44.9847 20.8201 45.2682 21.524 45.7799 22.0443C46.2926 22.5636 46.9927 22.8566 47.7223 22.8566C48.4528 22.8566 49.1519 22.5636 49.6646 22.0443C50.1774 21.524 50.4598 20.8201 50.4503 20.0905C50.4503 17.8019 52.2443 15.9993 54.5405 15.9993C55.2711 16.0098 55.9749 15.7273 56.4943 15.2146C57.0146 14.7019 57.3066 14.0027 57.3066 13.2722C57.3066 12.5417 57.0146 11.8426 56.4943 11.3299C55.9749 10.8171 55.2711 10.5347 54.5405 10.5451L54.5404 10.5452ZM23.1767 35.0908C11.1584 35.0908 1.35791 44.891 1.35791 56.9086C1.35791 68.9262 11.1581 78.7273 23.1767 78.7273C35.1942 78.7273 44.9944 68.9262 44.9944 56.9086C44.9944 44.891 35.1942 35.0908 23.1767 35.0908ZM23.1767 40.5449C32.2463 40.5449 39.5401 47.8387 39.5401 56.9083C39.5401 65.978 32.2463 73.2718 23.1767 73.2718C14.107 73.2718 6.81223 65.978 6.81223 56.9083C6.81223 47.8387 14.107 40.5449 23.1767 40.5449ZM23.1767 44.6361C16.4318 44.6361 10.9034 50.1673 10.9034 56.9083C10.8929 57.6389 11.1764 58.3418 11.6882 58.8621C12.2009 59.3824 12.9009 59.6744 13.6305 59.6744C14.361 59.6744 15.0602 59.3824 15.5729 58.8621C16.0856 58.3418 16.3681 57.6389 16.3586 56.9083C16.3586 53.1179 19.3769 50.0901 23.1768 50.0901C23.9064 50.1006 24.6102 49.8181 25.1296 49.3054C25.6499 48.7927 25.9429 48.0935 25.9429 47.363C25.9429 46.6325 25.6499 45.9334 25.1296 45.4207C24.6102 44.9079 23.9064 44.6255 23.1768 44.6359L23.1767 44.6361ZM58.6314 71.8651C45.1082 71.8651 34.0858 82.9296 34.0858 96.4544C34.0858 109.978 45.1084 121 58.6314 121C72.1555 121 83.1769 109.978 83.1769 96.4544C83.1769 82.9303 72.1553 71.8651 58.6314 71.8651ZM58.6314 77.362C69.2079 77.362 77.6802 85.8772 77.6802 96.4535C77.6802 107.029 69.2079 115.501 58.6314 115.501C48.0558 115.501 39.5409 107.029 39.5409 96.4535C39.5409 85.877 48.0561 77.362 58.6314 77.362ZM58.6314 82.817C51.1284 82.817 44.9949 88.9532 44.9949 96.4535C44.9845 97.183 45.2679 97.8869 45.7797 98.4063C46.2924 98.9266 46.9925 99.2195 47.722 99.2195C48.4526 99.2195 49.1517 98.9266 49.6644 98.4063C50.1771 97.8869 50.4596 97.183 50.4501 96.4535C50.4501 91.9038 54.0733 88.2711 58.6315 88.2711C59.362 88.2816 60.0649 87.9991 60.5852 87.4864C61.1055 86.9737 61.3975 86.2736 61.3975 85.544C61.3975 84.8135 61.1055 84.1144 60.5852 83.6017C60.0649 83.089 59.362 82.8065 58.6315 82.8169L58.6314 82.817Z" fill="#B42816" stroke="#B42816" stroke-width="2"/>
</svg>
