<svg width="11" height="22" viewBox="0 0 11 22" fill="none" xmlns="http://www.w3.org/2000/svg">
<path d="M10.2146 4.02757L10.2146 21.6071C10.2146 21.7113 10.1732 21.8113 10.0995 21.885C10.0259 21.9586 9.9259 22 9.82172 22H8.25031C8.03337 22 7.85746 21.8241 7.85746 21.6071L7.85746 4.0343C7.85711 3.84805 7.72663 3.68757 7.54441 3.64952L1.09938 2.31853C0.887873 2.27486 0.751426 2.06844 0.793868 1.85658L1.10271 0.315882C1.12323 0.213462 1.18374 0.123312 1.27073 0.0654395C1.35772 0.00738711 1.46452 -0.013131 1.56695 0.00826713L8.01826 1.33413C8.63753 1.46339 9.19367 1.80151 9.59353 2.29188C9.99322 2.78225 10.2124 3.39501 10.2144 4.02762L10.2146 4.02757Z" fill="white"/>
</svg>
