<svg width="18" height="26" viewBox="0 0 18 26" fill="none" xmlns="http://www.w3.org/2000/svg">
<path d="M11.2881 1C9.18596 1 7.47002 2.71575 7.47002 4.8181C7.47002 6.92044 9.18596 8.6362 11.2881 8.6362C13.3905 8.6362 15.1064 6.92044 15.1064 4.8181C15.1064 2.71575 13.3905 1 11.2881 1ZM11.2881 2.09082C12.8009 2.09082 14.0154 3.30533 14.0154 4.8181C14.0154 6.33086 12.8009 7.54538 11.2881 7.54538C9.77549 7.54538 8.56083 6.33086 8.56083 4.8181C8.56083 3.30533 9.77549 2.09082 11.2881 2.09082ZM11.2881 2.90905C10.2401 2.90905 9.37906 3.77009 9.37906 4.8181C9.37697 4.96401 9.43366 5.10479 9.53601 5.20885C9.63856 5.31272 9.77857 5.37131 9.92449 5.37131C10.0706 5.37131 10.2104 5.31272 10.313 5.20885C10.4155 5.10479 10.472 4.96401 10.4701 4.8181C10.4701 4.36038 10.8289 3.99987 11.2881 3.99987C11.4342 4.00196 11.575 3.94546 11.6789 3.84292C11.7829 3.74037 11.8414 3.60055 11.8414 3.45444C11.8414 3.30834 11.7829 3.16851 11.6789 3.06597C11.575 2.96343 11.4342 2.90693 11.2881 2.90902L11.2881 2.90905ZM5.01536 7.81816C2.6117 7.81816 0.651611 9.7782 0.651611 12.1817C0.651611 14.5852 2.61165 16.5455 5.01536 16.5455C7.41888 16.5455 9.37892 14.5852 9.37892 12.1817C9.37892 9.7782 7.41888 7.81816 5.01536 7.81816ZM5.01536 8.90898C6.8293 8.90898 8.28805 10.3677 8.28805 12.1817C8.28805 13.9956 6.8293 15.4544 5.01536 15.4544C3.20143 15.4544 1.74248 13.9956 1.74248 12.1817C1.74248 10.3677 3.20143 8.90898 5.01536 8.90898ZM5.01536 9.72721C3.66638 9.72721 2.56071 10.8335 2.56071 12.1817C2.55862 12.3278 2.61531 12.4684 2.71766 12.5724C2.8202 12.6765 2.96022 12.7349 3.10613 12.7349C3.25224 12.7349 3.39206 12.6765 3.4946 12.5724C3.59715 12.4684 3.65364 12.3278 3.65174 12.1817C3.65174 11.4236 4.2554 10.818 5.01539 10.818C5.1613 10.8201 5.30208 10.7636 5.40595 10.6611C5.51001 10.5585 5.5686 10.4187 5.5686 10.2726C5.5686 10.1265 5.51001 9.98667 5.40595 9.88413C5.30208 9.78159 5.1613 9.72509 5.01539 9.72718L5.01536 9.72721ZM12.1063 15.173C9.40166 15.173 7.19719 17.3859 7.19719 20.0909C7.19719 22.7955 9.40171 25 12.1063 25C14.8111 25 17.0154 22.7957 17.0154 20.0909C17.0154 17.3861 14.8111 15.173 12.1063 15.173ZM12.1063 16.2724C14.2216 16.2724 15.9161 17.9754 15.9161 20.0907C15.9161 22.2058 14.2216 23.9003 12.1063 23.9003C9.99119 23.9003 8.2882 22.2058 8.2882 20.0907C8.2882 17.9754 9.99124 16.2724 12.1063 16.2724ZM12.1063 17.3634C10.6057 17.3634 9.37902 18.5906 9.37902 20.0907C9.37692 20.2366 9.43361 20.3774 9.53597 20.4813C9.63851 20.5853 9.77852 20.6439 9.92444 20.6439C10.0705 20.6439 10.2104 20.5853 10.3129 20.4813C10.4155 20.3774 10.472 20.2366 10.4701 20.0907C10.4701 19.1808 11.1947 18.4542 12.1063 18.4542C12.2524 18.4563 12.393 18.3998 12.4971 18.2973C12.6011 18.1947 12.6595 18.0547 12.6595 17.9088C12.6595 17.7627 12.6011 17.6229 12.4971 17.5203C12.393 17.4178 12.2524 17.3613 12.1063 17.3634L12.1063 17.3634Z" fill="white" stroke="white" stroke-width="0.5"/>
</svg>
