<svg width="25" height="24" viewBox="0 0 25 24" fill="none" xmlns="http://www.w3.org/2000/svg">
<path d="M23.4839 5.69622C20.2168 5.69622 17.0756 6.91079 14.3533 8.67021C13.5155 5.44487 11.505 2.51295 7.73537 0V0.0418086C-1.89812 6.65971 -1.89812 17.3822 7.73537 24H7.69357C16.9918 23.9585 24.4894 16.419 24.4894 7.12069V5.69683L23.4839 5.69622ZM2.45731 12.0207C2.45731 8.50239 4.25827 5.10943 7.65109 2.3872C11.0437 5.10977 12.8867 8.50239 12.8867 12.0207C12.8867 15.204 11.5044 18.2616 8.57244 20.8168V17.6753V17.6335L11.5044 14.2828C11.8394 13.9057 11.7976 13.3193 11.4205 12.9425C11.0434 12.6075 10.4571 12.6493 10.122 13.0264L8.57243 14.8691V7.53918C8.57243 7.03668 8.23743 6.61777 7.73469 6.61777C7.2322 6.61777 6.89696 7.03665 6.89696 7.53918V10.555L5.43103 9.04725C5.09603 8.67017 4.42574 8.62836 4.04871 8.96336C3.67164 9.29837 3.71371 9.88478 4.04871 10.3036L6.85495 13.403V20.8582C3.9651 18.2616 2.45737 15.204 2.45737 12.0204L2.45731 12.0207ZM10.1225 21.8635C13.4733 18.6385 14.9813 14.7429 14.646 10.9315C16.9498 9.25599 19.6723 8.25104 22.5206 8.04142C22.1017 15.0362 16.8661 20.7324 10.1224 21.8633L10.1225 21.8635Z" fill="white"/>
</svg>
