<svg width="121" height="120" viewBox="0 0 121 120" fill="none" xmlns="http://www.w3.org/2000/svg">
<path d="M115.331 28.4811C98.995 28.4811 83.289 34.554 69.6775 43.3511C65.4888 27.2243 55.4363 12.5647 36.588 0V0.209043C-11.5795 33.2986 -11.5795 86.9112 36.588 120H36.379C82.8703 119.792 120.358 82.0947 120.358 35.6034V28.4842L115.331 28.4811ZM10.1977 60.1035C10.1977 42.512 19.2025 25.5472 36.1666 11.936C53.1294 25.5489 62.3445 42.512 62.3445 60.1035C62.3445 76.0198 55.4329 91.3078 40.7733 104.084V88.3766V88.1675L55.4329 71.4138C57.1079 69.5284 56.8989 66.5967 55.0135 64.7125C53.1282 63.0375 50.1964 63.2466 48.5213 65.1319L40.7733 74.3457V37.6959C40.7733 35.1834 39.0983 33.0888 36.5846 33.0888C34.0721 33.0888 32.3959 35.1833 32.3959 37.6959V52.7749L25.0663 45.2362C23.3913 43.3509 20.0398 43.1418 18.1547 44.8168C16.2693 46.4918 16.4797 49.4239 18.1547 51.5181L32.1859 67.015V104.291C17.7367 91.3078 10.198 76.0198 10.198 60.1018L10.1977 60.1035ZM48.5237 109.318C65.2775 93.1923 72.8178 73.7146 71.1413 54.6577C82.66 46.2799 96.2728 41.2552 110.514 40.2071C108.42 75.1808 82.2416 103.662 48.5233 109.316L48.5237 109.318Z" fill="#B42816"/>
</svg>
