<svg width="72" height="72" viewBox="0 0 72 72" fill="none" xmlns="http://www.w3.org/2000/svg">
<rect width="72" height="72" fill="#B42816"/>
<path d="M31.1431 25.7139C23.8928 25.7139 19.3917 30.5775 19.3917 36.7405C19.3917 39.7315 21.7784 46.4679 37.9109 54.1709C38.757 54.5638 40.1164 55.5 43.4695 55.5H51.2634C51.2634 52.2977 48.4237 52.3882 42.2006 52.2678C42.1703 43.7486 40.4786 38.6736 34.8599 33.2359L32.4732 33.4777C40.9924 37.4047 43.7113 42.5102 43.7113 49.1861L52.6228 42.4795L46.3694 35.5615C44.4966 33.0236 39.9951 25.7133 31.1439 25.7133L31.1431 25.7139ZM23.953 50.8787C22.3215 50.9389 21.0532 51.8756 21.0532 53.9905C21.0532 53.9905 27.2762 54.0507 31.6869 52.7216L27.2157 50.335C26.1582 50.6976 25.0709 50.8483 23.9532 50.8787L23.953 50.8787ZM48.6945 34.3844L51.6248 33.2364C49.8122 25.5932 45.9757 19.8843 40.3565 16.5C40.3565 22.0889 43.1962 28.1607 48.694 34.3835L48.6945 34.3844ZM53.0444 16.5009C50.5977 21.2438 50.5977 26.7719 53.0444 31.1827C55.431 26.7722 55.431 21.2439 53.0444 16.5009ZM44.1025 37.6781L52.6217 42.5114C55.4917 42.5114 58.8144 42.1488 58.8144 39.9135C58.8144 36.3187 53.4672 31.9684 49.5706 33.2373L44.1025 37.6781ZM13.5 37.5274C13.5 43.6904 22.9857 43.6904 22.9857 37.5274C22.9857 31.6063 13.5 31.6063 13.5 37.5274Z" fill="white"/>
</svg>
